#N canvas 394 426 970 665 10;
#X obj 647 119 moog~;
#X floatatom 131 501 5 0 0 0 - - -;
#X msg 587 77 reset;
#X obj 64 506 +~ 1;
#X floatatom 64 464 5 0 0 0 - - -;
#X floatatom 129 545 5 0 0 0 - - -;
#X obj 64 547 +~ 100;
#X obj 64 485 osc~ 0.25;
#X obj 64 526 *~ 2000;
#X obj 62 274 phasor~ 110;
#X text 60 353 resonance freq modulation;
#X msg 62 237 0;
#X obj 170 3 tgl 15 0 \$1moog_on \$1moog_on_init empty 17 7 0 10 -4034
-1 -1 0 1;
#X obj 62 172 r \$1moog_on;
#X obj 62 208 select 0 1;
#X obj 119 243 float;
#X obj 62 303 s~ \$1moog_phasor_in;
#X obj 646 37 r~ \$1moog_phasor_in;
#X obj 660 60 r~ \$1moog_modulation_in;
#X obj 63 571 s~ \$1moog_modulation_in;
#X floatatom 603 381 5 0 0 0 - - -;
#X obj 603 400 sig~ 3;
#X text 649 381 Q (1-4);
#X obj 673 88 r~ \$1moog_q_in;
#X obj 602 428 s~ \$1moog_q_in;
#X obj 687 155 spigot~;
#X obj 146 153 r \$1moog_phasor_val;
#X obj 147 208 t b f;
#X obj 308 202 r \$1moog_reset;
#X msg 308 230 110;
#X msg 319 385 0.25;
#X obj 319 355 r \$1moog_reset;
#X obj 149 371 r \$1moog_modulation_freq;
#X obj 131 476 r \$1moog_modulation_val1;
#X obj 129 524 r \$1moog_modulation_val2;
#X obj 320 440 r \$1moog_reset;
#X msg 320 470 2000;
#X obj 320 525 r \$1moog_reset;
#X msg 320 555 100;
#X obj 603 349 r \$1moog_q_val;
#X msg 64 436 0;
#X obj 64 371 r \$1moog_on;
#X obj 64 407 select 0 1;
#X obj 121 437 float;
#X obj 149 407 t b f;
#X obj 587 13 r \$1moog_reset2;
#X obj 726 181 env~;
#X floatatom 726 201 5 0 0 0 - - -;
#X obj 726 127 r \$1moog_mon;
#X obj 647 246 outlet~;
#X obj 151 3 bng 15 250 50 0 \$1moog_reset \$1moog_reset_init empty
17 7 0 10 -257985 -1 -1;
#X obj 7 23 hsl 120 14 0 1000 0 0 \$1moog_phasor_val_init \$1moog_phasor_val_init2
phasor 10 7 0 8 -260097 -1 -1 1309 1;
#X obj 130 23 nbx 5 14 -1e+37 1e+37 0 0 \$1moog_phasor_val \$1moog_phasor_val_init
empty 0 -8 0 10 -66577 -260097 -1 110 256;
#X obj 7 44 hsl 120 14 0 1 0 0 \$1moog_modulation_freq_init \$1moog_modulation_freq_init2
modulation_freq 10 7 0 8 -260097 -1 -1 6400 1;
#X obj 130 44 nbx 5 14 -1e+37 1e+37 0 0 \$1moog_modulation_freq \$1moog_modulation_freq_init
empty 0 -8 0 10 -66577 -260097 -1 0.25 256;
#X obj 7 60 hsl 120 14 0 10000 0 0 \$1moog_modulation_val1_init \$1moog_modulation_val1_init2
modulation_val1 10 7 0 8 -260097 -1 -1 4600 1;
#X obj 130 60 nbx 5 14 -1e+37 1e+37 0 0 \$1moog_modulation_val1 \$1moog_modulation_val1_init
empty 0 -8 0 10 -66577 -260097 -1 2000 256;
#X obj 7 76 hsl 120 14 0 999 0 0 \$1moog_modulation_val2_init \$1moog_modulation_val2_init2
modulation_val2 10 7 0 8 -260097 -1 -1 6100 1;
#X obj 130 76 nbx 5 14 -1e+37 1e+37 0 0 \$1moog_modulation_val2 \$1moog_modulation_val2_init
empty 0 -8 0 10 -66577 -260097 -1 100 256;
#X obj 726 361 r \$1moog_reset;
#X obj 726 417 s \$1moog_q_val_init;
#X obj 12 94 hradio 14 1 0 5 \$1moog_q_val \$1moog_q_val_init Q -9
7 0 10 -260097 -1 -1 0;
#X obj 85 94 bng 15 250 50 0 \$1moog_reset2 \$1moog_reset2_init moog_reset
17 7 0 8 -260097 -1 -1;
#X obj 353 59 loadbang;
#X obj 353 155 s \$1moog_reset;
#X msg 725 389 0;
#X obj 379 120 s \$1moog_on_init;
#X msg 379 93 0;
#X obj 150 186 spigot;
#X obj 307 257 s \$1moog_phasor_val_init2;
#X obj 319 412 s \$1moog_modulation_freq_init2;
#X obj 320 497 s \$1moog_modulation_val1_init2;
#X obj 320 582 s \$1moog_modulation_val2_init2;
#X connect 0 0 25 0;
#X connect 0 0 49 0;
#X connect 1 0 8 1;
#X connect 2 0 0 0;
#X connect 3 0 8 0;
#X connect 4 0 7 0;
#X connect 5 0 6 1;
#X connect 6 0 19 0;
#X connect 7 0 3 0;
#X connect 8 0 6 0;
#X connect 9 0 16 0;
#X connect 11 0 9 0;
#X connect 13 0 14 0;
#X connect 13 0 68 1;
#X connect 14 0 11 0;
#X connect 14 1 15 0;
#X connect 15 0 9 0;
#X connect 17 0 0 0;
#X connect 18 0 0 1;
#X connect 20 0 21 0;
#X connect 21 0 24 0;
#X connect 23 0 0 2;
#X connect 25 1 46 0;
#X connect 26 0 68 0;
#X connect 27 0 15 0;
#X connect 27 1 15 1;
#X connect 28 0 29 0;
#X connect 29 0 69 0;
#X connect 30 0 70 0;
#X connect 31 0 30 0;
#X connect 32 0 44 0;
#X connect 33 0 1 0;
#X connect 34 0 5 0;
#X connect 35 0 36 0;
#X connect 36 0 71 0;
#X connect 37 0 38 0;
#X connect 38 0 72 0;
#X connect 39 0 20 0;
#X connect 40 0 4 0;
#X connect 41 0 42 0;
#X connect 42 0 40 0;
#X connect 42 2 43 0;
#X connect 43 0 4 0;
#X connect 44 0 43 0;
#X connect 44 1 43 1;
#X connect 45 0 2 0;
#X connect 46 0 47 0;
#X connect 48 0 25 1;
#X connect 59 0 65 0;
#X connect 63 0 64 0;
#X connect 63 0 67 0;
#X connect 65 0 60 0;
#X connect 67 0 66 0;
#X connect 68 0 27 0;
#X coords 0 -1 1 1 190 120 1 0 0;
