#N canvas 945 372 500 262 10;
#N canvas 545 309 1167 656 pix_film_player 0;
#X obj 372 491 unpack 0 0 0;
#X floatatom 362 514 5 0 0 3 length - -;
#X floatatom 411 514 5 0 0 3 width - -;
#X floatatom 461 514 5 0 0 3 height - -;
#X obj 429 423 bng 15 250 50 0 empty empty end_reached 20 7 0 10 -262144
-1 -1;
#X floatatom 798 47 5 0 10000 1 frame# - -;
#X obj 238 309 pix_film;
#X obj 73 41 r \$1gmplayer_movie_on;
#X obj 40 64 spigot;
#X obj 798 16 r \$1gmplayer_movie_frames;
#X obj 429 450 s \$1gmplayer_movie_end;
#X obj 40 17 inlet;
#X obj 362 563 s \$1gmplayer_movie_length;
#X obj 670 346 loadbang;
#X msg 670 384 1;
#X obj 668 416 s \$1gmplayer_movie_auto_init;
#X obj 639 463 s \$1gmplayer_movie_colorspacesel_init;
#X msg 638 431 0;
#X obj 37 273 tgl 15 0 empty empty empty 0 -6 0 8 -262144 -1 -1 0 1
;
#X msg 37 292 mode \$1;
#X obj 40 216 tgl 15 0 empty empty empty 0 -6 0 8 -262144 -1 -1 0 1
;
#X msg 40 235 client_storage \$1;
#N canvas 769 367 1019 563 movie_control 0;
#X msg 144 439 open /home/musa/0zpd/0mandril/media/estrella.mov;
#X obj 209 243 r \$1gmplayer_file_out;
#X msg 136 372 set open \$1;
#X msg 321 411 auto 1;
#X obj 487 301 r \$1gmplayer_movie_colorspace;
#X msg 485 423 colorspace RGBA;
#X msg 485 368 set colorspace \$1;
#X obj 24 209 r \$1gmplayer_movie_play;
#X obj 57 239 r \$1gmplayer_movie_on;
#X obj 24 262 spigot;
#X obj 306 500 s \$1gmplayer_movie_pix_in;
#X obj 76 321 t b b b;
#X obj 271 27 r \$1gmplayer_movie_colorspacesel;
#X obj 271 56 select 0 1 2;
#X msg 267 93 RGBA;
#X msg 304 92 YUV;
#X msg 344 94 Grey;
#X obj 269 126 s \$1gmplayer_movie_colorspace;
#X obj 542 35 r \$1gmplayer_movie_end;
#X obj 659 66 r \$1gmplayer_movie_endmode;
#X obj 542 99 demux cont loop stop;
#X obj 542 175 s \$1gmplayer_next;
#X obj 647 143 s \$1gmplayer_movie_play_init;
#X msg 600 124 1;
#X msg 655 125 0;
#X obj 696 338 r \$1gmplayer_movie_frames1;
#X obj 697 417 autoscale;
#X obj 727 365 r \$1gmplayer_movie_length;
#X msg 716 392 0;
#X obj 697 453 s \$1gmplayer_movie_frames;
#X obj 487 336 l2s;
#X obj 237 268 r \$1gmplayer_movie_play;
#X obj 206 291 spigot;
#X msg 654 232 0;
#X obj 654 259 s \$1gmplayer_movie_frames1_init;
#X obj 678 172 s \$1gmplayer_movie_auto_init;
#X obj 435 252 r \$1gmplayer_movie_on;
#X obj 402 275 spigot;
#X obj 402 222 r \$1gmplayer_movie_stop;
#X msg 370 408 auto 0;
#X connect 0 0 10 0;
#X connect 1 0 2 0;
#X connect 1 0 32 0;
#X connect 2 0 0 0;
#X connect 3 0 10 0;
#X connect 4 0 30 0;
#X connect 5 0 10 0;
#X connect 6 0 5 0;
#X connect 7 0 9 0;
#X connect 8 0 9 1;
#X connect 9 0 11 0;
#X connect 11 0 0 0;
#X connect 11 1 3 0;
#X connect 11 2 5 0;
#X connect 12 0 13 0;
#X connect 13 0 14 0;
#X connect 13 1 15 0;
#X connect 13 2 16 0;
#X connect 14 0 17 0;
#X connect 15 0 17 0;
#X connect 16 0 17 0;
#X connect 18 0 20 0;
#X connect 18 0 33 0;
#X connect 19 0 20 1;
#X connect 20 0 21 0;
#X connect 20 1 23 0;
#X connect 20 2 24 0;
#X connect 23 0 22 0;
#X connect 23 0 35 0;
#X connect 24 0 22 0;
#X connect 24 0 35 0;
#X connect 25 0 26 0;
#X connect 26 0 29 0;
#X connect 27 0 28 0;
#X connect 30 0 6 0;
#X connect 31 0 32 1;
#X connect 32 0 11 0;
#X connect 33 0 34 0;
#X connect 36 0 37 1;
#X connect 37 0 39 0;
#X connect 38 0 37 0;
#X connect 39 0 10 0;
#X restore 335 188 pd movie_control;
#X obj 416 312 pix_movie;
#X obj 175 67 r \$1gmplayer_movie_player;
#X obj 646 499 s \$1gmplayer_movie_frames;
#X obj 259 559 outlet;
#X obj 467 277 r \$1gmplayer_movie_in2;
#X obj 416 246 r \$1gmplayer_movie_in1;
#X obj 933 72 r \$1gmplayer_movie_player;
#X obj 81 382 r \$1gmplayer_movie_in2;
#X obj 30 351 r \$1gmplayer_movie_in1;
#X obj 798 165 s \$1gmplayer_film_in2;
#X obj 865 140 s \$1gmplayer_movie_in2;
#X obj 591 54 r \$1gmplayer_movie_player;
#X obj 456 146 s \$1gmplayer_film_in1;
#X obj 523 128 s \$1gmplayer_movie_in1;
#X obj 238 252 r \$1gmplayer_film_in1;
#X obj 283 281 r \$1gmplayer_film_in2;
#X obj 40 154 s \$1gmplayer_film_in1;
#X obj 107 136 s \$1gmplayer_movie_in1;
#X obj 456 25 inlet;
#X obj 497 24 r \$1gmplayer_movie_pix_in;
#X obj 40 97 demux film movie buffer;
#X obj 456 78 demux film movie buffer;
#X obj 798 96 demux film movie buffer;
#N canvas 4 125 965 583 video_buffer 0;
#X text 304 408 Video;
#X text 471 429 Storage for the video;
#X text 475 442 maximum 800 frames in this case;
#X obj 506 291 unpack f f f;
#X obj 500 131 inlet;
#X text 509 150 filename;
#X text 521 229 load video into the buffer;
#N canvas 4 125 658 515 pix_buffer_filmopen 0;
#X obj 52 49 inlet;
#X obj 95 212 gemhead;
#X msg 126 235 open \$1;
#X obj 153 354 until;
#X obj 153 314 t f b;
#X obj 153 374 i;
#X obj 186 375 + 1;
#X msg 95 187 0;
#X obj 95 165 loadbang;
#X obj 52 72 route set open;
#X msg 52 114 set \$1;
#X obj 126 130 unpack s 0;
#X obj 126 104 t a b;
#X obj 199 156 t f;
#X msg 204 130 0;
#X obj 52 93 symbol;
#X obj 153 397 t b f f f;
#X obj 193 423 + 0;
#X msg 198 354 0;
#X obj 121 514 outlet info;
#X obj 197 514 outlet finished;
#X obj 196 316 t b;
#X obj 121 288 t a a;
#X obj 121 437 t a b;
#X obj 95 260 pix_film bass2.mov;
#X text 275 271 (c) copyleft 2009 Max Neupert;
#X text 274 253 (c) copyleft 2008-2009 IOhannes m zmoelnig \, IEM \,
KUG;
#X obj 95 475 pix_buffer_write \$1buff;
#X connect 0 0 9 0;
#X connect 1 0 24 0;
#X connect 2 0 24 0;
#X connect 3 0 5 0;
#X connect 4 0 3 0;
#X connect 4 1 18 0;
#X connect 5 0 6 0;
#X connect 5 0 16 0;
#X connect 6 0 5 1;
#X connect 7 0 1 0;
#X connect 8 0 7 0;
#X connect 9 0 15 0;
#X connect 9 1 12 0;
#X connect 10 0 27 0;
#X connect 11 0 2 0;
#X connect 11 1 13 0;
#X connect 12 0 11 0;
#X connect 12 1 14 0;
#X connect 13 0 17 1;
#X connect 14 0 13 0;
#X connect 15 0 10 0;
#X connect 16 0 1 0;
#X connect 16 1 24 1;
#X connect 16 2 17 0;
#X connect 17 0 27 1;
#X connect 18 0 5 1;
#X connect 21 0 3 1;
#X connect 22 0 23 0;
#X connect 22 1 4 0;
#X connect 23 0 19 0;
#X connect 23 1 20 0;
#X connect 24 0 27 0;
#X connect 24 1 22 0;
#X connect 24 2 21 0;
#X restore 506 250 pd pix_buffer_filmopen \$1buff;
#X obj 305 428 pix_buffer \$1buff 800;
#X obj 267 252 *;
#X obj 240 139 t a b;
#X obj 267 274 int;
#X obj 267 296 change;
#X obj 240 117 inlet;
#X text 283 115 gemhead;
#X obj 240 327 pix_buffer_read \$1buff;
#X obj 282 230 r \$1buff_frames;
#X obj 506 325 s \$1buff_frames;
#X obj 231 391 outlet;
#X connect 3 0 17 0;
#X connect 4 0 7 0;
#X connect 7 0 3 0;
#X connect 9 0 11 0;
#X connect 10 0 15 0;
#X connect 10 1 9 0;
#X connect 11 0 12 0;
#X connect 12 0 15 1;
#X connect 13 0 10 0;
#X connect 15 0 18 0;
#X connect 16 0 9 1;
#X restore 692 308 pd video_buffer;
#X obj 173 119 s \$1gmplayer_buffer_in1;
#X obj 694 262 r \$1gmplayer_buffer_in1;
#X obj 590 104 s \$1gmplayer_buffer_in2;
#X obj 781 285 r \$1gmplayer_buffer_in2;
#X connect 0 0 1 0;
#X connect 0 1 2 0;
#X connect 0 2 3 0;
#X connect 1 0 12 0;
#X connect 4 0 10 0;
#X connect 5 0 45 0;
#X connect 6 0 26 0;
#X connect 6 1 0 0;
#X connect 6 2 4 0;
#X connect 7 0 8 1;
#X connect 8 0 43 0;
#X connect 9 0 5 0;
#X connect 11 0 8 0;
#X connect 13 0 14 0;
#X connect 13 0 17 0;
#X connect 14 0 15 0;
#X connect 17 0 16 0;
#X connect 17 0 25 0;
#X connect 18 0 19 0;
#X connect 20 0 21 0;
#X connect 23 0 26 0;
#X connect 23 1 0 0;
#X connect 23 2 4 0;
#X connect 24 0 43 1;
#X connect 27 0 23 1;
#X connect 28 0 23 0;
#X connect 29 0 45 1;
#X connect 34 0 44 1;
#X connect 37 0 6 0;
#X connect 38 0 6 1;
#X connect 41 0 44 0;
#X connect 42 0 44 0;
#X connect 43 0 39 0;
#X connect 43 1 40 0;
#X connect 43 2 47 0;
#X connect 44 0 35 0;
#X connect 44 1 36 0;
#X connect 44 2 49 0;
#X connect 45 0 32 0;
#X connect 45 1 33 0;
#X connect 46 0 26 0;
#X connect 48 0 46 0;
#X connect 50 0 46 1;
#X restore 287 114 pd pix_film_player;
#X obj 1 19 cnv 15 198 65 empty \$0color_bmovie empty 20 8 0 8 -99865
-262144 0;
#X obj 141 2 tgl 15 0 \$1gmplayer_movie_on \$1gmplayer_movie_on_init
empty 17 7 0 8 -4034 -1 -1 0 1;
#X obj 32 119 tgl 14 0 \$1gmplayer_movie_player \$1gmplayer_movie_player_init
film/movie 17 7 0 8 -260097 -1 -228856 0 1;
#X obj 155 20 vradio 13 1 0 3 \$1gmplayer_movie_colorspacesel \$1gmplayer_movie_colorspacesel_init
empty 0 -8 0 8 -260097 -1 -1 0;
#X text 169 17 RGBA;
#X text 170 31 YUV;
#X text 170 43 Grey;
#X obj 110 20 vradio 13 1 0 3 \$1gmplayer_movie_endmode \$1gmplayer_movie_endmode_init
empty 0 -8 0 8 -260097 -1 -1 0;
#X text 123 17 cont.;
#X text 123 31 loop;
#X text 124 43 stop;
#X obj 5 70 hsl 110 12 0 127 0 0 \$1gmplayer_movie_frames1 \$1gmplayer_movie_frames1_init
frame 2 6 0 8 -33289 -260097 -260097 0 0;
#X obj 117 70 nbx 4 12 -1e+37 1e+37 0 0 empty \$1gmplayer_movie_frames
empty 0 -8 0 8 -33289 -260097 -260097 0 256;
#X obj 157 3 cnv 13 40 13 empty \$0color_movie ON 2 8 0 8 -162277 -1
0;
#X obj 155 70 nbx 4 12 -1e+37 1e+37 0 0 empty \$1gmplayer_movie_length
empty 0 -8 0 8 -33289 -260097 -260097 427 256;
#X obj 287 21 inlet;
#X obj 287 181 outlet;
#X obj 392 17 inlet;
#X obj 5 22 bng 15 250 50 0 \$1gmplayer_movie_play empty play 17 7
0 8 -4160 -262144 -262144;
#X obj 5 38 bng 15 250 50 0 \$1gmplayer_movie_stop empty stop 17 7
0 8 -258113 -262144 -262144;
#X text 303 41 gemhead;
#X text 402 42 filename;
#X msg 392 71 open \$1;
#X obj 64 20 vradio 13 1 0 3 \$1gmplayer_movie_player \$1gmplayer_movie_player_init
empty 0 -8 0 8 -260097 -1 -1 0;
#X connect 0 0 17 0;
#X connect 16 0 0 0;
#X connect 18 0 23 0;
#X connect 23 0 0 1;
#X coords 0 -1 1 1 200 85 1 0 0;
