#N canvas 320 475 450 300 10;
#X obj 6 37 hsl 128 13 0 127 0 0 empty empty rotateX -2 8 0 8 -66577
-260097 -260097 0 1;
#X obj 6 53 hsl 128 13 0 127 0 0 empty empty IN/OUT -2 8 0 8 -66577
-260097 -260097 0 1;
#X obj 6 21 hsl 128 13 0 127 0 0 empty empty rotateY -2 8 0 8 -66577
-260097 -260097 0 1;
#N canvas 4 125 1012 650 ch_view 0;
#X obj 295 181 f;
#X obj 216 162 spigot;
#X obj 277 153 sel 0 1;
#X obj 247 134 t f f;
#X obj 216 210 -;
#X obj 216 259 +;
#X obj 277 223 f;
#X obj 169 178 f;
#X obj 90 159 spigot;
#X obj 151 150 sel 0 1;
#X obj 121 131 t f f;
#X obj 90 210 -;
#X obj 90 259 +;
#X obj 151 220 f;
#X obj 416 172 f;
#X obj 337 156 spigot;
#X obj 398 147 sel 0 1;
#X obj 368 128 t f f;
#X obj 337 207 -;
#X obj 398 217 f;
#X obj 90 475 * 4;
#X obj 145 477 * 4;
#X obj 166 318 t b f;
#X obj 104 382 cos;
#X obj 116 440 * 1;
#X obj 90 440 * 1;
#X obj 142 383 sin;
#X obj 117 476 * 4;
#X obj 104 404 t b f;
#X obj 104 358 / 200;
#X obj 90 501 pack f f f;
#X obj 468 59 gemmouse;
#X obj 525 145 t b f;
#X obj 525 174 |;
#X obj 497 250 gemhead;
#X obj 501 203 loadbang;
#X msg 497 225 0;
#X obj 497 325 curve 2;
#X obj 497 276 color 1 0 0;
#X obj 581 250 gemhead;
#X obj 581 325 curve 2;
#X obj 661 252 gemhead;
#X obj 661 327 curve 2;
#X msg 534 299 3 0 0;
#X msg 618 299 0 3 0;
#X msg 698 301 0 0 3;
#X msg 90 526 view \$1 \$2 \$3 0 0 0 0 1 0;
#X obj 581 276 color 0 1 0;
#X obj 661 278 color 0 0 1;
#X obj 90 318 sin;
#X obj 116 319 cos;
#X obj 337 256 + 200;
#X obj 167 292 / 50;
#X obj 90 293 / -200;
#X obj 91 578 outlet;
#X obj 70 24 inlet;
#X obj 225 29 inlet;
#X obj 142 25 inlet;
#X obj 69 92 / 127;
#X obj 70 71 * 400;
#X obj 141 92 / 127;
#X obj 141 68 * 200;
#X obj 141 46 * -3.14;
#X obj 70 47 * 3.14;
#X text 362 29 adaption of ch_gemwin for mboxes;
#X obj 223 54 * 10;
#X connect 0 0 4 1;
#X connect 1 0 4 0;
#X connect 2 0 6 0;
#X connect 2 1 0 0;
#X connect 3 0 1 1;
#X connect 3 1 2 0;
#X connect 4 0 5 0;
#X connect 5 0 6 1;
#X connect 5 0 29 0;
#X connect 6 0 5 1;
#X connect 7 0 11 1;
#X connect 8 0 11 0;
#X connect 9 0 13 0;
#X connect 9 1 7 0;
#X connect 10 0 8 1;
#X connect 10 1 9 0;
#X connect 11 0 12 0;
#X connect 12 0 13 1;
#X connect 12 0 53 0;
#X connect 13 0 12 1;
#X connect 14 0 18 1;
#X connect 15 0 18 0;
#X connect 16 0 19 0;
#X connect 16 1 14 0;
#X connect 17 0 15 1;
#X connect 17 1 16 0;
#X connect 18 0 51 0;
#X connect 19 0 51 1;
#X connect 20 0 30 0;
#X connect 21 0 30 2;
#X connect 22 0 21 0;
#X connect 22 0 20 0;
#X connect 22 0 27 0;
#X connect 22 1 21 1;
#X connect 22 1 20 1;
#X connect 22 1 27 1;
#X connect 23 0 28 0;
#X connect 24 0 21 0;
#X connect 25 0 20 0;
#X connect 26 0 27 0;
#X connect 27 0 30 1;
#X connect 28 0 24 0;
#X connect 28 0 25 0;
#X connect 28 1 24 1;
#X connect 28 1 25 1;
#X connect 29 0 23 0;
#X connect 29 0 26 0;
#X connect 30 0 46 0;
#X connect 31 0 8 0;
#X connect 31 0 7 1;
#X connect 31 1 1 0;
#X connect 31 1 0 1;
#X connect 31 1 14 1;
#X connect 31 1 15 0;
#X connect 31 2 3 0;
#X connect 31 2 10 0;
#X connect 31 2 33 0;
#X connect 31 3 17 0;
#X connect 31 3 32 0;
#X connect 32 0 33 0;
#X connect 32 1 33 1;
#X connect 33 0 34 0;
#X connect 33 0 39 0;
#X connect 33 0 41 0;
#X connect 34 0 38 0;
#X connect 35 0 36 0;
#X connect 35 0 43 0;
#X connect 35 0 44 0;
#X connect 35 0 45 0;
#X connect 35 0 53 0;
#X connect 35 0 51 0;
#X connect 36 0 34 0;
#X connect 36 0 39 0;
#X connect 36 0 41 0;
#X connect 38 0 37 0;
#X connect 39 0 47 0;
#X connect 41 0 48 0;
#X connect 43 0 37 2;
#X connect 44 0 40 2;
#X connect 45 0 42 2;
#X connect 46 0 54 0;
#X connect 47 0 40 0;
#X connect 48 0 42 0;
#X connect 49 0 25 0;
#X connect 50 0 24 0;
#X connect 51 0 19 1;
#X connect 51 0 52 0;
#X connect 52 0 22 0;
#X connect 53 0 49 0;
#X connect 53 0 50 0;
#X connect 55 0 63 0;
#X connect 56 0 65 0;
#X connect 57 0 62 0;
#X connect 58 0 53 0;
#X connect 59 0 58 0;
#X connect 60 0 29 0;
#X connect 61 0 60 0;
#X connect 62 0 61 0;
#X connect 63 0 59 0;
#X connect 65 0 52 0;
#X restore 19 101 pd ch_view;
#X obj 122 4 bng 14 250 50 0 empty empty empty 17 7 0 7 -257985 -1
-1;
#X msg 50 -29 0;
#X msg 84 -29 56;
#X obj 19 127 s \$1gemwin_extern_input;
#X text 156 -6 arg1 must be the same id of gemwindow.;
#X connect 0 0 3 1;
#X connect 1 0 3 2;
#X connect 2 0 3 0;
#X connect 3 0 7 0;
#X connect 4 0 5 0;
#X connect 4 0 6 0;
#X connect 5 0 2 0;
#X connect 5 0 0 0;
#X connect 6 0 1 0;
#X coords 0 -1 1 1 140 70 1 0 0;
