#N canvas 479 599 972 751 10;
#X declare -lib moocow;
#X text 251 168 from;
#X obj 161 167 unpack 0 0 0 0;
#X floatatom 161 190 3 0 0 0 - - -;
#X floatatom 188 190 3 0 0 0 - - -;
#X floatatom 215 190 3 0 0 0 - - -;
#X floatatom 242 190 3 0 0 0 - - -;
#X obj 181 144 tgl 15 0 empty empty connected 18 7 0 8 -24198 -241291
-1 0 1;
#X text 268 190 (Server IP Address);
#X obj 142 121 httpget;
#X obj 47 152 spigot;
#X obj 47 90 tgl 15 0 empty empty empty 17 7 0 10 -262144 -1 -1 1 1
;
#X obj 47 176 print all;
#X msg 158 80 http://ipinfodb.com/ip_query.php?ip=193.147.208.5&timezone=false
;
#X text 101 81 xml;
#X obj 143 -36 inlet;
#X msg 143 53 http://ipinfodb.com/ip_query.php?key=3bb95b6ba69d2dda6be06cb6e495181092af890eec43466ec0451a6e53699556&ip=0&timezone=false
;
#X obj 153 38 bng 15 250 50 0 empty empty empty 17 7 0 10 -262144 -1
-1;
#X text 250 117 IPINFODB.COM ip location abstraction.inlet->ip to locate
;
#X obj 252 -39 inlet;
#X text 295 -40 your own ip;
#X obj 687 393 tgl 15 0 empty empty empty 17 7 0 10 -262144 -1 -1 0
1;
#X obj 685 -21 inlet;
#X text 721 -22 debug;
#X symbolatom 21 259 10 0 0 0 - - -;
#X symbolatom 11 277 10 0 0 0 - - -;
#X symbolatom 10 296 10 0 0 0 - - -;
#X symbolatom 12 312 10 0 0 0 - - -;
#X obj 95 221 unpack s s s s s s s s s s s s s s s s s s s;
#N canvas 2 75 450 410 read_tag 0;
#X obj 113 101 splitfilename >;
#X obj 113 62 s2l <;
#X obj 113 25 inlet;
#X text 159 29 <name>value</name>;
#X obj 113 146 buddy;
#X msg 113 180 set \$1;
#X msg 113 262 Status OK;
#X obj 147 201 bng 15 250 50 0 empty empty empty 17 7 0 10 -262144
-1 -1;
#X msg 185 208 add2 OK;
#X msg 188 189 set add2 \$1;
#X obj 188 234 bng 15 250 50 0 empty empty empty 17 7 0 10 -262144
-1 -1;
#X obj 111 296 outlet;
#X connect 0 0 4 0;
#X connect 0 1 4 1;
#X connect 1 0 0 0;
#X connect 2 0 1 0;
#X connect 4 0 5 0;
#X connect 4 1 9 0;
#X connect 5 0 6 0;
#X connect 5 0 7 0;
#X connect 6 0 11 0;
#X connect 7 0 8 0;
#X connect 8 0 6 0;
#X connect 8 0 10 0;
#X connect 9 0 8 0;
#X connect 10 0 6 0;
#X restore 153 609 pd read_tag;
#N canvas 3 100 450 410 read_tag 0;
#X obj 113 101 splitfilename >;
#X obj 113 62 s2l <;
#X obj 113 25 inlet;
#X text 159 29 <name>value</name>;
#X obj 113 146 buddy;
#X msg 113 180 set \$1;
#X msg 113 262 CountryCode ES;
#X obj 147 201 bng 15 250 50 0 empty empty empty 17 7 0 10 -262144
-1 -1;
#X msg 185 208 add2 ES;
#X msg 188 189 set add2 \$1;
#X obj 188 234 bng 15 250 50 0 empty empty empty 17 7 0 10 -262144
-1 -1;
#X obj 111 296 outlet;
#X connect 0 0 4 0;
#X connect 0 1 4 1;
#X connect 1 0 0 0;
#X connect 2 0 1 0;
#X connect 4 0 5 0;
#X connect 4 1 9 0;
#X connect 5 0 6 0;
#X connect 5 0 7 0;
#X connect 6 0 11 0;
#X connect 7 0 8 0;
#X connect 8 0 6 0;
#X connect 8 0 10 0;
#X connect 9 0 8 0;
#X connect 10 0 6 0;
#X restore 167 582 pd read_tag;
#X obj 399 413 route Ip Status CountryCode CountryName RegionCode RegionName
Cyty ZipPostalCode Latitude Longitude;
#N canvas 2 75 450 410 read_tag 0;
#X obj 113 101 splitfilename >;
#X obj 113 62 s2l <;
#X obj 113 25 inlet;
#X text 159 29 <name>value</name>;
#X obj 113 146 buddy;
#X msg 113 180 set \$1;
#X msg 113 262 CountryName Spain;
#X obj 147 201 bng 15 250 50 0 empty empty empty 17 7 0 10 -262144
-1 -1;
#X msg 185 208 add2 Spain;
#X msg 188 189 set add2 \$1;
#X obj 188 234 bng 15 250 50 0 empty empty empty 17 7 0 10 -262144
-1 -1;
#X obj 111 296 outlet;
#X connect 0 0 4 0;
#X connect 0 1 4 1;
#X connect 1 0 0 0;
#X connect 2 0 1 0;
#X connect 4 0 5 0;
#X connect 4 1 9 0;
#X connect 5 0 6 0;
#X connect 5 0 7 0;
#X connect 6 0 11 0;
#X connect 7 0 8 0;
#X connect 8 0 6 0;
#X connect 8 0 10 0;
#X connect 9 0 8 0;
#X connect 10 0 6 0;
#X restore 182 559 pd read_tag;
#N canvas 3 100 450 410 read_tag 0;
#X obj 113 101 splitfilename >;
#X obj 113 62 s2l <;
#X obj 113 25 inlet;
#X text 159 29 <name>value</name>;
#X obj 113 146 buddy;
#X msg 113 180 set \$1;
#X msg 113 262 RegionCode 56;
#X obj 147 201 bng 15 250 50 0 empty empty empty 17 7 0 10 -262144
-1 -1;
#X msg 185 208 add2 56;
#X msg 188 189 set add2 \$1;
#X obj 188 234 bng 15 250 50 0 empty empty empty 17 7 0 10 -262144
-1 -1;
#X obj 111 296 outlet;
#X connect 0 0 4 0;
#X connect 0 1 4 1;
#X connect 1 0 0 0;
#X connect 2 0 1 0;
#X connect 4 0 5 0;
#X connect 4 1 9 0;
#X connect 5 0 6 0;
#X connect 5 0 7 0;
#X connect 6 0 11 0;
#X connect 7 0 8 0;
#X connect 8 0 6 0;
#X connect 8 0 10 0;
#X connect 9 0 8 0;
#X connect 10 0 6 0;
#X restore 196 532 pd read_tag;
#N canvas 2 75 450 410 read_tag 0;
#X obj 113 101 splitfilename >;
#X obj 113 62 s2l <;
#X obj 113 25 inlet;
#X text 159 29 <name>value</name>;
#X obj 113 146 buddy;
#X msg 113 180 set \$1;
#X msg 113 262 RegionName Catalonia;
#X obj 147 201 bng 15 250 50 0 empty empty empty 17 7 0 10 -262144
-1 -1;
#X msg 185 208 add2 Catalonia;
#X msg 188 189 set add2 \$1;
#X obj 188 234 bng 15 250 50 0 empty empty empty 17 7 0 10 -262144
-1 -1;
#X obj 111 296 outlet;
#X connect 0 0 4 0;
#X connect 0 1 4 1;
#X connect 1 0 0 0;
#X connect 2 0 1 0;
#X connect 4 0 5 0;
#X connect 4 1 9 0;
#X connect 5 0 6 0;
#X connect 5 0 7 0;
#X connect 6 0 11 0;
#X connect 7 0 8 0;
#X connect 8 0 6 0;
#X connect 8 0 10 0;
#X connect 9 0 8 0;
#X connect 10 0 6 0;
#X restore 211 508 pd read_tag;
#N canvas 3 100 450 410 read_tag 0;
#X obj 113 101 splitfilename >;
#X obj 113 62 s2l <;
#X obj 113 25 inlet;
#X text 159 29 <name>value</name>;
#X obj 113 146 buddy;
#X msg 113 180 set \$1;
#X msg 113 262 City Mataró;
#X obj 147 201 bng 15 250 50 0 empty empty empty 17 7 0 10 -262144
-1 -1;
#X msg 185 208 add2 Mataró;
#X msg 188 189 set add2 \$1;
#X obj 188 234 bng 15 250 50 0 empty empty empty 17 7 0 10 -262144
-1 -1;
#X obj 111 296 outlet;
#X connect 0 0 4 0;
#X connect 0 1 4 1;
#X connect 1 0 0 0;
#X connect 2 0 1 0;
#X connect 4 0 5 0;
#X connect 4 1 9 0;
#X connect 5 0 6 0;
#X connect 5 0 7 0;
#X connect 6 0 11 0;
#X connect 7 0 8 0;
#X connect 8 0 6 0;
#X connect 8 0 10 0;
#X connect 9 0 8 0;
#X connect 10 0 6 0;
#X restore 225 481 pd read_tag;
#N canvas 2 75 450 410 read_tag 0;
#X obj 113 101 splitfilename >;
#X obj 113 62 s2l <;
#X obj 113 25 inlet;
#X text 159 29 <name>value</name>;
#X obj 113 146 buddy;
#X msg 113 180 set \$1;
#X msg 113 262 ZipPostalCode ;
#X obj 147 201 bng 15 250 50 0 empty empty empty 17 7 0 10 -262144
-1 -1;
#X msg 185 208 add2 ;
#X msg 188 189 set add2 \$1;
#X obj 188 234 bng 15 250 50 0 empty empty empty 17 7 0 10 -262144
-1 -1;
#X obj 111 296 outlet;
#X connect 0 0 4 0;
#X connect 0 1 4 1;
#X connect 1 0 0 0;
#X connect 2 0 1 0;
#X connect 4 0 5 0;
#X connect 4 1 9 0;
#X connect 5 0 6 0;
#X connect 5 0 7 0;
#X connect 6 0 11 0;
#X connect 7 0 8 0;
#X connect 8 0 6 0;
#X connect 8 0 10 0;
#X connect 9 0 8 0;
#X connect 10 0 6 0;
#X restore 240 458 pd read_tag;
#N canvas 3 100 450 410 read_tag 0;
#X obj 113 101 splitfilename >;
#X obj 113 62 s2l <;
#X obj 113 25 inlet;
#X text 159 29 <name>value</name>;
#X obj 113 146 buddy;
#X msg 113 180 set \$1;
#X msg 113 262 Latitude 41.5333;
#X obj 147 201 bng 15 250 50 0 empty empty empty 17 7 0 10 -262144
-1 -1;
#X msg 185 208 add2 41.5333;
#X msg 188 189 set add2 \$1;
#X obj 188 234 bng 15 250 50 0 empty empty empty 17 7 0 10 -262144
-1 -1;
#X obj 111 296 outlet;
#X connect 0 0 4 0;
#X connect 0 1 4 1;
#X connect 1 0 0 0;
#X connect 2 0 1 0;
#X connect 4 0 5 0;
#X connect 4 1 9 0;
#X connect 5 0 6 0;
#X connect 5 0 7 0;
#X connect 6 0 11 0;
#X connect 7 0 8 0;
#X connect 8 0 6 0;
#X connect 8 0 10 0;
#X connect 9 0 8 0;
#X connect 10 0 6 0;
#X restore 254 431 pd read_tag;
#N canvas 3 100 450 410 read_tag 0;
#X obj 113 101 splitfilename >;
#X obj 113 62 s2l <;
#X obj 113 25 inlet;
#X text 159 29 <name>value</name>;
#X obj 113 146 buddy;
#X msg 113 180 set \$1;
#X msg 113 262 Longitude 2.45;
#X obj 147 201 bng 15 250 50 0 empty empty empty 17 7 0 10 -262144
-1 -1;
#X msg 185 208 add2 2.45;
#X msg 188 189 set add2 \$1;
#X obj 188 234 bng 15 250 50 0 empty empty empty 17 7 0 10 -262144
-1 -1;
#X obj 111 296 outlet;
#X connect 0 0 4 0;
#X connect 0 1 4 1;
#X connect 1 0 0 0;
#X connect 2 0 1 0;
#X connect 4 0 5 0;
#X connect 4 1 9 0;
#X connect 5 0 6 0;
#X connect 5 0 7 0;
#X connect 6 0 11 0;
#X connect 7 0 8 0;
#X connect 8 0 6 0;
#X connect 8 0 10 0;
#X connect 9 0 8 0;
#X connect 10 0 6 0;
#X restore 270 409 pd read_tag;
#N canvas 2 75 450 410 read_tag 0;
#X obj 113 101 splitfilename >;
#X obj 113 62 s2l <;
#X obj 113 25 inlet;
#X text 159 29 <name>value</name>;
#X obj 113 146 buddy;
#X msg 113 180 set \$1;
#X msg 113 262 Gmtoffset 0;
#X obj 147 201 bng 15 250 50 0 empty empty empty 17 7 0 10 -262144
-1 -1;
#X msg 185 208 add2 0;
#X msg 188 189 set add2 \$1;
#X obj 188 234 bng 15 250 50 0 empty empty empty 17 7 0 10 -262144
-1 -1;
#X obj 111 296 outlet;
#X connect 0 0 4 0;
#X connect 0 1 4 1;
#X connect 1 0 0 0;
#X connect 2 0 1 0;
#X connect 4 0 5 0;
#X connect 4 1 9 0;
#X connect 5 0 6 0;
#X connect 5 0 7 0;
#X connect 6 0 11 0;
#X connect 7 0 8 0;
#X connect 8 0 6 0;
#X connect 8 0 10 0;
#X connect 9 0 8 0;
#X connect 10 0 6 0;
#X restore 285 385 pd read_tag;
#N canvas 3 100 450 410 read_tag 0;
#X obj 113 101 splitfilename >;
#X obj 113 62 s2l <;
#X obj 113 25 inlet;
#X text 159 29 <name>value</name>;
#X obj 113 146 buddy;
#X msg 113 180 set \$1;
#X msg 113 262 Dstoffset 0;
#X obj 147 201 bng 15 250 50 0 empty empty empty 17 7 0 10 -262144
-1 -1;
#X msg 185 208 add2 0;
#X msg 188 189 set add2 \$1;
#X obj 188 234 bng 15 250 50 0 empty empty empty 17 7 0 10 -262144
-1 -1;
#X obj 111 296 outlet;
#X connect 0 0 4 0;
#X connect 0 1 4 1;
#X connect 1 0 0 0;
#X connect 2 0 1 0;
#X connect 4 0 5 0;
#X connect 4 1 9 0;
#X connect 5 0 6 0;
#X connect 5 0 7 0;
#X connect 6 0 11 0;
#X connect 7 0 8 0;
#X connect 8 0 6 0;
#X connect 8 0 10 0;
#X connect 9 0 8 0;
#X connect 10 0 6 0;
#X restore 299 358 pd read_tag;
#N canvas 2 75 450 410 read_tag 0;
#X obj 113 101 splitfilename >;
#X obj 113 62 s2l <;
#X obj 113 25 inlet;
#X text 159 29 <name>value</name>;
#X obj 113 146 buddy;
#X msg 113 180 set \$1;
#X msg 113 262 TimezoneName ;
#X obj 147 201 bng 15 250 50 0 empty empty empty 17 7 0 10 -262144
-1 -1;
#X msg 185 208 add2 ;
#X msg 188 189 set add2 \$1;
#X obj 188 234 bng 15 250 50 0 empty empty empty 17 7 0 10 -262144
-1 -1;
#X obj 111 296 outlet;
#X connect 0 0 4 0;
#X connect 0 1 4 1;
#X connect 1 0 0 0;
#X connect 2 0 1 0;
#X connect 4 0 5 0;
#X connect 4 1 9 0;
#X connect 5 0 6 0;
#X connect 5 0 7 0;
#X connect 6 0 11 0;
#X connect 7 0 8 0;
#X connect 8 0 6 0;
#X connect 8 0 10 0;
#X connect 9 0 8 0;
#X connect 10 0 6 0;
#X restore 314 335 pd read_tag;
#N canvas 3 100 450 410 read_tag 0;
#X obj 113 101 splitfilename >;
#X obj 113 62 s2l <;
#X obj 113 25 inlet;
#X text 159 29 <name>value</name>;
#X obj 113 146 buddy;
#X msg 113 180 set \$1;
#X msg 113 262 Isdst ;
#X obj 147 201 bng 15 250 50 0 empty empty empty 17 7 0 10 -262144
-1 -1;
#X msg 185 208 add2 ;
#X msg 188 189 set add2 \$1;
#X obj 188 234 bng 15 250 50 0 empty empty empty 17 7 0 10 -262144
-1 -1;
#X obj 111 296 outlet;
#X connect 0 0 4 0;
#X connect 0 1 4 1;
#X connect 1 0 0 0;
#X connect 2 0 1 0;
#X connect 4 0 5 0;
#X connect 4 1 9 0;
#X connect 5 0 6 0;
#X connect 5 0 7 0;
#X connect 6 0 11 0;
#X connect 7 0 8 0;
#X connect 8 0 6 0;
#X connect 8 0 10 0;
#X connect 9 0 8 0;
#X connect 10 0 6 0;
#X restore 328 308 pd read_tag;
#N canvas 2 75 450 410 read_tag 0;
#X obj 113 101 splitfilename >;
#X obj 113 62 s2l <;
#X obj 113 25 inlet;
#X text 159 29 <name>value</name>;
#X obj 113 146 buddy;
#X msg 113 180 set \$1;
#X msg 113 262 Ip 95.61.25.244;
#X obj 147 201 bng 15 250 50 0 empty empty empty 17 7 0 10 -262144
-1 -1;
#X msg 185 208 add2 95.61.25.244;
#X msg 188 189 set add2 \$1;
#X obj 188 234 bng 15 250 50 0 empty empty empty 17 7 0 10 -262144
-1 -1;
#X obj 111 296 outlet;
#X connect 0 0 4 0;
#X connect 0 1 4 1;
#X connect 1 0 0 0;
#X connect 2 0 1 0;
#X connect 4 0 5 0;
#X connect 4 1 9 0;
#X connect 5 0 6 0;
#X connect 5 0 7 0;
#X connect 6 0 11 0;
#X connect 7 0 8 0;
#X connect 8 0 6 0;
#X connect 8 0 10 0;
#X connect 9 0 8 0;
#X connect 10 0 6 0;
#X restore 344 287 pd read_tag;
#N canvas 3 100 450 410 read_tag 0;
#X obj 113 101 splitfilename >;
#X obj 113 62 s2l <;
#X obj 113 25 inlet;
#X text 159 29 <name>value</name>;
#X obj 113 146 buddy;
#X msg 113 180 set \$1;
#X msg 113 262 /Response ;
#X obj 147 201 bng 15 250 50 0 empty empty empty 17 7 0 10 -262144
-1 -1;
#X msg 185 208 add2 ;
#X msg 188 189 set add2 \$1;
#X obj 188 234 bng 15 250 50 0 empty empty empty 17 7 0 10 -262144
-1 -1;
#X obj 111 296 outlet;
#X connect 0 0 4 0;
#X connect 0 1 4 1;
#X connect 1 0 0 0;
#X connect 2 0 1 0;
#X connect 4 0 5 0;
#X connect 4 1 9 0;
#X connect 5 0 6 0;
#X connect 5 0 7 0;
#X connect 6 0 11 0;
#X connect 7 0 8 0;
#X connect 8 0 6 0;
#X connect 8 0 10 0;
#X connect 9 0 8 0;
#X connect 10 0 6 0;
#X restore 358 260 pd read_tag;
#N canvas 1 140 1184 243 print_values 0;
#X obj 74 131 spigot;
#X obj 74 155 print IP;
#X obj 145 132 spigot;
#X obj 145 156 print Status;
#X obj 360 135 spigot;
#X obj 244 134 spigot;
#X obj 244 158 print CountryCode;
#X obj 360 159 print CountryName;
#X obj 476 136 spigot;
#X obj 74 69 inlet;
#X obj 145 70 inlet;
#X obj 243 71 inlet;
#X obj 360 69 inlet;
#X obj 476 75 inlet;
#X obj 869 138 spigot;
#X obj 967 138 spigot;
#X obj 869 162 print Latitude;
#X obj 967 162 print Longitude;
#X obj 697 137 spigot;
#X obj 697 161 print City;
#X obj 476 160 print RegionCode;
#X obj 588 137 spigot;
#X obj 588 76 inlet;
#X obj 588 161 print RegionName;
#X obj 772 138 spigot;
#X obj 772 77 inlet;
#X obj 772 162 print ZipCode;
#X obj 697 79 inlet;
#X obj 967 79 inlet;
#X obj 868 80 inlet;
#X obj 1064 92 tgl 15 0 empty empty empty 17 7 0 10 -262144 -1 -1 0
1;
#X obj 1063 61 inlet;
#X connect 0 0 1 0;
#X connect 2 0 3 0;
#X connect 4 0 7 0;
#X connect 5 0 6 0;
#X connect 8 0 20 0;
#X connect 9 0 0 0;
#X connect 10 0 2 0;
#X connect 11 0 5 0;
#X connect 12 0 4 0;
#X connect 13 0 8 0;
#X connect 14 0 16 0;
#X connect 15 0 17 0;
#X connect 18 0 19 0;
#X connect 21 0 23 0;
#X connect 22 0 21 0;
#X connect 24 0 26 0;
#X connect 25 0 24 0;
#X connect 27 0 18 0;
#X connect 28 0 15 0;
#X connect 29 0 14 0;
#X connect 30 0 15 1;
#X connect 30 0 14 1;
#X connect 30 0 24 1;
#X connect 30 0 18 1;
#X connect 30 0 21 1;
#X connect 30 0 8 1;
#X connect 30 0 4 1;
#X connect 30 0 5 1;
#X connect 30 0 2 1;
#X connect 30 0 0 1;
#X connect 31 0 30 0;
#X restore 401 443 pd print_values --------------------------------
;
#X obj 384 506 outlet;
#X obj 430 506 outlet;
#X obj 476 506 outlet;
#X obj 522 506 outlet;
#X obj 568 505 outlet;
#X obj 614 505 outlet;
#X obj 660 505 outlet;
#X obj 706 505 outlet;
#X obj 752 503 outlet;
#X obj 798 503 outlet;
#X text 393 524 IP;
#X text 432 524 status;
#X text 478 527 CCode;
#X text 523 526 Cname;
#X text 570 526 Rcode;
#X text 617 525 Rname;
#X text 665 527 City;
#X text 713 526 Zip;
#X text 750 524 Latitude;
#X text 806 523 Longitude;
#X msg 597 37 http://api.ipinfodb.com/v2/ip_query.php?key=3bb95b6ba69d2dda6be06cb6e495181092af890eec43466ec0451a6e53699556&ip=208.43.76.2&timezone=false
;
#X msg 369 1 http://api.ipinfodb.com/v2/ip_query.php?key=3bb95b6ba69d2dda6be06cb6e495181092af890eec43466ec0451a6e53699556&timezone=false
;
#X msg -46 -18 set http://api.ipinfodb.com/v2/ip_query.php?key=3bb95b6ba69d2dda6be06cb6e495181092af890eec43466ec0451a6e53699556&ip=\$1&timezone=false
;
#X connect 1 0 2 0;
#X connect 1 1 3 0;
#X connect 1 2 4 0;
#X connect 1 3 5 0;
#X connect 8 0 9 0;
#X connect 8 0 27 0;
#X connect 8 1 1 0;
#X connect 8 2 6 0;
#X connect 9 0 11 0;
#X connect 10 0 9 1;
#X connect 12 0 8 0;
#X connect 14 0 67 0;
#X connect 15 0 8 0;
#X connect 16 0 15 0;
#X connect 18 0 66 0;
#X connect 20 0 44 10;
#X connect 21 0 20 0;
#X connect 27 0 23 0;
#X connect 27 1 24 0;
#X connect 27 2 25 0;
#X connect 27 3 26 0;
#X connect 27 4 28 0;
#X connect 27 5 29 0;
#X connect 27 6 31 0;
#X connect 27 7 32 0;
#X connect 27 8 33 0;
#X connect 27 9 34 0;
#X connect 27 10 35 0;
#X connect 27 11 36 0;
#X connect 27 12 37 0;
#X connect 27 13 38 0;
#X connect 27 14 39 0;
#X connect 27 15 40 0;
#X connect 27 16 41 0;
#X connect 27 17 42 0;
#X connect 27 18 43 0;
#X connect 28 0 30 0;
#X connect 29 0 30 0;
#X connect 30 0 44 0;
#X connect 30 0 45 0;
#X connect 30 1 44 1;
#X connect 30 1 46 0;
#X connect 30 2 44 2;
#X connect 30 2 47 0;
#X connect 30 3 44 3;
#X connect 30 3 48 0;
#X connect 30 4 44 4;
#X connect 30 4 49 0;
#X connect 30 5 44 5;
#X connect 30 5 50 0;
#X connect 30 6 44 6;
#X connect 30 6 51 0;
#X connect 30 7 44 7;
#X connect 30 7 52 0;
#X connect 30 8 44 8;
#X connect 30 8 53 0;
#X connect 30 9 44 9;
#X connect 30 9 54 0;
#X connect 31 0 30 0;
#X connect 32 0 30 0;
#X connect 33 0 30 0;
#X connect 34 0 30 0;
#X connect 35 0 30 0;
#X connect 36 0 30 0;
#X connect 37 0 30 0;
#X connect 38 0 30 0;
#X connect 39 0 30 0;
#X connect 40 0 30 0;
#X connect 41 0 30 0;
#X connect 42 0 30 0;
#X connect 43 0 30 0;
#X connect 65 0 8 0;
#X connect 66 0 8 0;
#X connect 67 0 15 0;
#X connect 67 0 16 0;
