#N canvas 1 50 824 349 10;
#X declare -lib moocow;
#X symbolatom 6 291 10 0 0 0 - - -;
#X obj 178 92 bng 15 250 50 0 empty empty empty 17 7 0 10 -262144 -1
-1;
#X obj 8 266 tosymbol;
#X msg 129 48 symbol 193.147.208.5;
#X symbolatom 73 291 10 0 0 0 - - -;
#X obj 75 266 tosymbol;
#X symbolatom 141 289 10 0 0 0 - - -;
#X obj 143 264 tosymbol;
#X symbolatom 208 289 10 0 0 0 - - -;
#X obj 210 264 tosymbol;
#X symbolatom 284 290 10 0 0 0 - - -;
#X obj 286 265 tosymbol;
#X symbolatom 351 290 10 0 0 0 - - -;
#X obj 353 265 tosymbol;
#X symbolatom 423 288 10 0 0 0 - - -;
#X obj 425 263 tosymbol;
#X symbolatom 490 288 10 0 0 0 - - -;
#X obj 492 263 tosymbol;
#X floatatom 605 270 5 0 0 0 - - -;
#X obj 134 118 mb-httpget_ipinfodb ------------------------;
#X obj 590 207 fromsymbol;
#X floatatom 530 275 5 0 0 0 - - -;
#X obj 515 212 fromsymbol;
#X connect 1 0 19 1;
#X connect 2 0 0 0;
#X connect 3 0 19 0;
#X connect 5 0 4 0;
#X connect 7 0 6 0;
#X connect 9 0 8 0;
#X connect 11 0 10 0;
#X connect 13 0 12 0;
#X connect 15 0 14 0;
#X connect 17 0 16 0;
#X connect 19 0 2 0;
#X connect 19 1 5 0;
#X connect 19 2 7 0;
#X connect 19 3 9 0;
#X connect 19 4 11 0;
#X connect 19 5 13 0;
#X connect 19 6 15 0;
#X connect 19 7 17 0;
#X connect 19 8 22 0;
#X connect 19 9 20 0;
#X connect 20 0 18 0;
#X connect 22 0 21 0;
