#N canvas 613 172 835 559 10;
#X obj 88 128 shell;
#X msg 87 101 ifconfig eth0;
#X msg 84 72 set ifconfig \$1;
#X msg 142 20 eth0;
#X obj 93 45 symbol;
#X obj 54 95 bng 15 250 50 0 empty empty empty 17 7 0 10 -262144 -1
-1;
#X obj 92 -5 inlet;
#X obj 134 383 outlet;
#X obj 255 -46 loadbang;
#X obj 260 0 symbol \$1;
#X text 277 46 arg1->interface name;
#X obj 87 294 s2l :;
#X obj 75 384 print ip;
#X symbolatom 52 347 0 0 0 0 - - -;
#X symbolatom 138 349 0 0 0 0 - - -;
#X obj 84 322 unpack s s;
#X obj 123 203 unpack s s s;
#X obj 260 299 s2l :;
#X symbolatom 225 352 0 0 0 0 - - -;
#X symbolatom 311 354 0 0 0 0 - - -;
#X obj 257 327 unpack s s;
#X obj 229 388 print Bcast;
#X obj 497 393 outlet;
#X obj 450 304 s2l :;
#X symbolatom 415 357 0 0 0 0 - - -;
#X symbolatom 501 359 0 0 0 0 - - -;
#X obj 447 332 unpack s s;
#X obj 419 393 print Mask;
#X obj 200 150 spigot;
#X obj 240 121 tgl 15 0 empty empty empty 17 7 0 10 -262144 -1 -1 0
1;
#X obj 253 148 print DEBUG;
#X obj 88 172 route inet;
#X connect 0 0 31 0;
#X connect 1 0 0 0;
#X connect 2 0 1 0;
#X connect 2 0 5 0;
#X connect 3 0 4 0;
#X connect 4 0 2 0;
#X connect 5 0 1 0;
#X connect 6 0 4 0;
#X connect 8 0 9 0;
#X connect 9 0 2 0;
#X connect 11 0 15 0;
#X connect 14 0 7 0;
#X connect 14 0 12 0;
#X connect 15 0 13 0;
#X connect 15 1 14 0;
#X connect 16 0 11 0;
#X connect 16 1 17 0;
#X connect 16 2 23 0;
#X connect 17 0 20 0;
#X connect 19 0 21 0;
#X connect 20 0 18 0;
#X connect 20 1 19 0;
#X connect 23 0 26 0;
#X connect 25 0 22 0;
#X connect 25 0 27 0;
#X connect 26 0 24 0;
#X connect 26 1 25 0;
#X connect 28 0 30 0;
#X connect 29 0 28 1;
#X connect 31 0 16 0;
#X connect 31 1 28 0;
