#N canvas 541 225 1261 873 10;
#X obj 241 115 mmb-pdp_open_qt_video ma;
#X obj 240 180 mmb-pdp_open_qt_video mb;
#X text 81 136 [mmb-pdp_open_qt_video ma];
#X text 79 210 [mmb-pdp_open_qt_video mb];
#X text 109 114 SOURCE_1: VIDEO FILE;
#X text 110 185 SOURCE_2: VIDEO FILE;
#X obj 424 117 mmb-pdp_capture_video ca;
#X symbolatom 536 161 10 0 0 0 - - -;
#X obj 425 181 mmb-pdp_capture_video cb;
#X symbolatom 526 225 10 0 0 0 - - -;
#X text 610 116 SOURCE_3: capture device;
#X text 608 135 [mmb-pdp_capture_device ca];
#X text 609 178 SOURCE_4: capture device;
#X text 607 196 [mmb-pdp_capture_device cb];
#X obj 238 260 mmb-pdp_video_select s1;
#X obj 430 261 mmb-pdp_video_select s2;
#X obj 240 406 mmb-pdp_effects ef1;
#X obj 239 477 mmb-pdp_freeframe_control fr1;
#X text 621 280 [mmb-pdp_video_select s2];
#X text 81 287 [mmb-pdp_video_select s1];
#X text 146 413 PDP EFFECTS 1;
#X text 101 432 [mmb-pdp_effects ef1];
#X text 100 507 FreeFrame EFFECTS 1;
#X text 48 531 [mmb-pdp_freeframe_control fr1];
#X text 93 579 Frei0r EFFECTS 1;
#X text 62 598 [mmb-pdp_frei0r_control f01];
#X obj 245 576 mmb-pdp_frei0r_control f01;
#X text 619 257 VIDEO2 SOURCE SELECTION;
#X text 78 261 VIDEO1 SOURCE SELECTION;
#X obj 237 330 mmb-pdp_out_select o1;
#X obj 513 365 mmb-pdp_mixer mx;
#X obj 248 672 mmb-pdp_video_select out;
#X obj 249 739 mmb-pdp_play_video pl1;
#X text 40 17 Exemple 4: pdp video mixer + pdp effects + frei0r ef.
+ freeframe ef. + miniboxes;
#X connect 0 0 14 0;
#X connect 0 0 1 0;
#X connect 0 0 15 0;
#X connect 1 0 14 1;
#X connect 1 0 15 1;
#X connect 6 0 14 2;
#X connect 6 0 15 2;
#X connect 6 1 7 0;
#X connect 8 0 14 3;
#X connect 8 0 15 3;
#X connect 8 1 9 0;
#X connect 14 0 29 0;
#X connect 16 0 31 0;
#X connect 17 0 31 1;
#X connect 26 0 31 2;
#X connect 29 0 16 0;
#X connect 29 1 17 0;
#X connect 29 2 26 0;
#X connect 31 0 32 0;
