#N canvas 621 151 891 788 10;
#X obj 241 115 mmb-pdp_open_qt_video ma;
#X obj 424 117 mmb-pdp_capture_video ca;
#X symbolatom 536 161 10 0 0 0 - - -;
#X obj 609 118 mmb-pdp_capture_video cb;
#X symbolatom 725 165 10 0 0 0 - - -;
#X text 435 94 [mmb-pdp_capture_device ca];
#X text 612 94 [mmb-pdp_capture_device cb];
#X obj 230 669 mmb-pdp_play_video pl1;
#X text 246 94 [mmb-pdp_open_qt_video ma];
#X text 274 72 SOURCE_1: VIDEO FILE;
#X text 437 75 SOURCE_2: capture device;
#X text 614 76 SOURCE_3: capture device;
#X obj 229 257 mb-pdp_freeframe_control ff;
#X text 701 297 FreeFrame EFFECTS;
#X text 649 321 [mb-pdp_freeframe_control ff];
#X obj 302 195 mmb-pdp_video_select vs;
#X text 40 17 Exemple 3: pdp video freeframe ef. + miniboxes;
#X connect 0 0 15 0;
#X connect 1 0 15 1;
#X connect 1 1 2 0;
#X connect 3 1 4 0;
#X connect 12 0 7 0;
#X connect 15 0 12 0;
