#N canvas 620 178 627 517 10;
#X obj 19 453 mb-audio_out a;
#X obj 18 238 mb-audio_moog a;
#X obj 24 25 mb-midi_nanokontrol_mon a;
#N canvas 2 77 1010 603 moog_controls 0;
#X obj 221 290 r amidi_kontrol_slid1_init;
#X obj 42 113 select 127;
#X obj 42 310 s amoog_on_init;
#X msg 42 139 1;
#X obj 69 235 select 127;
#X msg 69 261 0;
#X obj 223 227 autoscale 0 1000;
#X obj 391 249 s amoog_modulation_freq_init2;
#X obj 223 249 s amoog_phasor_val_init2;
#X obj 41 28 r amidi_kontrol_b1a;
#X obj 41 84 spigot;
#X obj 225 36 r amidi_kontrol_scene;
#X obj 225 61 select 1;
#X msg 270 85 0;
#X msg 225 85 1;
#X obj 225 120 s scene_1;
#X obj 74 53 r scene_1;
#X floatatom 302 65 5 0 0 0 - - -;
#X obj 223 156 r amidi_kontrol_knob1_out;
#X obj 391 227 autoscale 0 1;
#X obj 69 209 spigot;
#X obj 102 178 r scene_1;
#X obj 69 156 r amidi_kontrol_b1b;
#X obj 223 203 spigot;
#X obj 256 182 r scene_1;
#X obj 391 204 spigot;
#X obj 424 183 r scene_1;
#X obj 391 159 r amidi_kontrol_knob2_out;
#X obj 221 336 spigot;
#X obj 254 315 r scene_1;
#X obj 221 358 autoscale 0 10000;
#X obj 221 385 s amoog_modulation_val1_init2;
#X obj 422 338 spigot;
#X obj 455 317 r scene_1;
#X obj 422 292 r amidi_kontrol_slid2_init;
#X obj 422 360 autoscale 0 999;
#X obj 422 386 s amoog_modulation_val2_init2;
#X obj 643 164 r amidi_kontrol_b2a;
#X obj 643 211 spigot;
#X obj 676 190 r scene_1;
#X obj 769 209 spigot;
#X obj 802 188 r scene_1;
#X obj 769 162 r amidi_kontrol_b2b;
#X obj 643 249 select 127;
#X obj 769 245 select 127;
#X obj 705 301 r amoog_q_val;
#X obj 681 330 float;
#X floatatom 707 395 5 0 4 0 - - -;
#X obj 666 460 s amoog_q_val_init;
#X floatatom 588 189 5 0 0 0 - - -;
#X obj 625 285 bng 15 250 50 0 empty empty empty 17 7 0 10 -262144
-1 -1;
#X obj 707 357 + 1;
#X obj 817 303 r amoog_q_val;
#X obj 793 332 float;
#X obj 762 362 - 1;
#X connect 0 0 28 0;
#X connect 1 0 3 0;
#X connect 3 0 2 0;
#X connect 4 0 5 0;
#X connect 5 0 2 0;
#X connect 6 0 8 0;
#X connect 9 0 10 0;
#X connect 10 0 1 0;
#X connect 11 0 12 0;
#X connect 11 0 17 0;
#X connect 12 0 14 0;
#X connect 12 1 13 0;
#X connect 13 0 15 0;
#X connect 14 0 15 0;
#X connect 16 0 10 1;
#X connect 18 0 23 0;
#X connect 19 0 7 0;
#X connect 20 0 4 0;
#X connect 21 0 20 1;
#X connect 22 0 20 0;
#X connect 23 0 6 0;
#X connect 24 0 23 1;
#X connect 25 0 19 0;
#X connect 26 0 25 1;
#X connect 27 0 25 0;
#X connect 28 0 30 0;
#X connect 29 0 28 1;
#X connect 30 0 31 0;
#X connect 32 0 35 0;
#X connect 33 0 32 1;
#X connect 34 0 32 0;
#X connect 35 0 36 0;
#X connect 37 0 38 0;
#X connect 37 0 49 0;
#X connect 38 0 43 0;
#X connect 39 0 38 1;
#X connect 40 0 44 0;
#X connect 41 0 40 1;
#X connect 42 0 40 0;
#X connect 43 0 46 0;
#X connect 43 0 50 0;
#X connect 44 0 53 0;
#X connect 45 0 46 1;
#X connect 46 0 51 0;
#X connect 47 0 48 0;
#X connect 51 0 47 0;
#X connect 52 0 53 1;
#X connect 53 0 54 0;
#X connect 54 0 47 0;
#X restore 21 213 pd moog_controls;
#X text 15 192 Scene1 \, controls 1 i 2;
#X connect 1 0 0 0;
