#N canvas 458 61 915 731 10;
#X obj 241 115 mmb-pdp_open_qt_video ma;
#X obj 424 117 mmb-pdp_capture_video ca;
#X symbolatom 536 161 10 0 0 0 - - -;
#X obj 609 118 mmb-pdp_capture_video cb;
#X symbolatom 725 165 10 0 0 0 - - -;
#X text 435 94 [mmb-pdp_capture_device ca];
#X text 612 94 [mmb-pdp_capture_device cb];
#X text 697 360 Frei0r EFFECTS 1;
#X obj 229 615 mmb-pdp_play_video pl1;
#X text 246 94 [mmb-pdp_open_qt_video ma];
#X text 274 72 SOURCE_1: VIDEO FILE;
#X obj 230 231 mb-pdp_frei0r_control fr1;
#X text 437 75 SOURCE_2: capture device;
#X text 614 76 SOURCE_3: capture device;
#X text 666 379 [mb-pdp_frei0r_control fr1];
#X text 40 17 Exemple 2: pdp video freior ef. + miniboxes;
#X connect 0 0 11 0;
#X connect 1 0 11 1;
#X connect 1 1 2 0;
#X connect 3 0 11 2;
#X connect 3 1 4 0;
#X connect 11 0 8 0;
