#N canvas 202 250 1234 628 10;
#X obj 605 -11 gemhead;
#X obj 667 469 sphere 0.2;
#X obj 742 471 cube 0.2;
#X obj 605 66 mb-gem_part aa;
#X obj 662 390 spigot;
#X obj 698 366 tgl 15 0 empty empty empty 17 7 0 10 -262144 -1 -1 0
1;
#X obj 737 386 spigot;
#X obj 773 362 tgl 15 0 empty empty empty 17 7 0 10 -262144 -1 -1 0
1;
#X obj 25 -110 world_light;
#X obj 25 -138 gemhead;
#X obj 131 -131 mmb-gem_window gw;
#X floatatom 150 -61 5 0 0 0 - - -;
#X obj 178 -56 hsl 128 15 -20 20 0 0 gwgemwin_movez empty gw_camera_z
-2 8 0 8 -262144 -1 -1 8700 1;
#X floatatom 151 -75 5 0 0 0 - - -;
#X obj 187 -75 hsl 128 15 -20 20 0 0 gwgemwin_movey empty gw_camera_y
-2 8 0 8 -262144 -1 -1 4000 1;
#X floatatom 150 -91 5 0 0 0 - - -;
#X obj 187 -90 hsl 128 15 -20 20 0 0 gwgemwin_movex empty gw_camera_x
-2 8 0 8 -262144 -1 -1 0 1;
#X msg 126 -88 1;
#X msg 124 -62 20;
#X floatatom 142 -34 5 0 0 0 - - -;
#X obj 179 -33 hsl 128 15 -90 90 0 0 gwgemwin_turnlr empty gw_camera_horizrotate
-2 8 0 8 -262144 -1 -1 6100 1;
#X floatatom 142 -16 5 0 0 0 - - -;
#X obj 179 -15 hsl 128 15 -90 90 0 0 gwgemwin_turnud empty gw_camera_vertrotate
-2 8 0 8 -262144 -1 -1 7100 1;
#X msg 111 -35 0;
#X obj 409 -84 hsl 128 15 0 127 0 0 empty empty empty -2 -6 0 8 -262144
-1 -1 0 1;
#X obj 425 -68 hsl 128 15 0 127 0 0 empty empty empty -2 -6 0 8 -262144
-1 -1 5800 1;
#X obj 377 -99 hsl 128 15 0 127 0 0 empty empty empty -2 -6 0 8 -262144
-1 -1 1700 1;
#X text 469 -127 camera position;
#X obj 370 -49 mb-gem_chgemwin gw;
#X obj 338 -27 s gwgemwin_extern_input;
#X msg 343 -126 lighting 1;
#X obj 627 22 translateXYZ;
#X floatatom 673 -8 5 0 0 0 - - -;
#X floatatom 710 -7 5 0 0 0 - - -;
#X floatatom 747 -7 5 0 0 0 - - -;
#X connect 0 0 31 0;
#X connect 3 1 4 0;
#X connect 3 1 6 0;
#X connect 4 0 1 0;
#X connect 5 0 4 1;
#X connect 6 0 2 0;
#X connect 7 0 6 1;
#X connect 9 0 8 0;
#X connect 12 0 11 0;
#X connect 14 0 13 0;
#X connect 16 0 15 0;
#X connect 17 0 16 0;
#X connect 17 0 14 0;
#X connect 18 0 12 0;
#X connect 20 0 19 0;
#X connect 22 0 21 0;
#X connect 23 0 20 0;
#X connect 23 0 22 0;
#X connect 24 0 28 1;
#X connect 25 0 28 2;
#X connect 26 0 28 0;
#X connect 28 0 29 0;
#X connect 30 0 29 0;
#X connect 31 0 3 0;
#X connect 32 0 31 1;
#X connect 33 0 31 2;
#X connect 34 0 31 3;
