#N canvas 67 121 997 1017 10;
#X obj 55 -20 mmb-gem_window gw;
#X obj 52 138 gemhead;
#X obj 52 163 mmb-gem_mp_bufferbase bs1;
#X obj 253 425 mb-gmedia_player gm1;
#X obj 46 423 mb-pmedia_player pm1;
#X text 327 378 GEM;
#X text 138 403 PDP;
#X obj 52 370 s mpbase_out1;
#X obj 253 403 r mpbase_out1;
#X obj 46 959 s pmedia_out1;
#X obj 369 404 r pmedia_out1;
#X obj 513 164 mmb-gem_mp_bufferbase bs2;
#X obj 514 386 s mpbase_out2;
#X obj 510 439 mb-gmedia_player gm2;
#X obj 510 410 r mpbase_out2;
#X obj 512 129 gemhead;
#X connect 0 1 2 1;
#X connect 0 1 11 1;
#X connect 0 2 2 2;
#X connect 0 2 11 2;
#X connect 1 0 2 0;
#X connect 2 0 7 0;
#X connect 4 0 9 0;
#X connect 8 0 3 0;
#X connect 10 0 3 4;
#X connect 11 0 12 0;
#X connect 14 0 13 0;
#X connect 15 0 11 0;
