#N canvas 319 172 1315 681 10;
#X obj -320 477 mmb-pdp_play_video a;
#X obj -328 311 mmb-pdp_open_qt_video a;
#X obj 584 34 mb-gem_window gf;
#X obj 310 765 mb-gem_pix_control_shapes gf;
#X obj 308 584 mb-gem_pix_control_texture gf;
#X obj 298 354 mb-gem_pix_control_transform gf;
#X connect 1 0 0 0;
#X connect 4 0 3 0;
#X connect 5 0 4 0;
