#N canvas 681 93 1148 1009 10;
#X obj 642 84 mb-gem_window w;
#X text 678 50 [mb-gem_window w];
#X obj 218 588 mb-gem_pix_effects ef;
#X obj 613 421 mb-gem_pix_open_image_file im;
#X obj 218 348 mb-gem_pix_capture_video cv;
#X obj 1079 405 mb-gem_pix_open_video_file vf;
#X text 232 320 [mb-gem_pix_capture_video cv];
#X text 636 388 [mb-gem_pix_open_image_file im];
#X text 1095 367 [mb-gem_pix_open_video_file vf];
#X text 244 553 [mb-gem_pix_effects ef];
#X text 252 897 [mb-gem_pix_control_texture tx];
#X text 247 1080 [mb-gem_pix_control_transform tr];
#X text 233 1319 [mb-gem_pix_control_shapes sh];
#X obj 1100 590 mb-gem_pix_effects ef3;
#X obj 1080 907 mb-gem_pix_control_texture tx3;
#X obj 1083 1329 mb-gem_pix_control_shapes sh3;
#X text 1111 566 [mb-gem_pix_effects ef3];
#X text 619 900 [mb-gem_pix_control_texture tx2];
#X obj 614 593 mb-gem_pix_effects ef2;
#X text 660 558 [mb-gem_pix_effects ef2];
#X text 683 1089 [mb-gem_pix_control_transform tr2];
#X text 1111 1069 [mb-gem_pix_control_transform tr3];
#X text 639 1319 [mb-gem_pix_control_shapes sh2];
#X text 1090 1306 [mb-gem_pix_control_shapes sh3];
#X obj 1084 1094 mb-gem_pix_control_transform tr3;
#X obj 1133 114 playlist all 200 200 {Bitstream 7 normal} #606060 orange
white red;
#X symbolatom 1140 322 40 0 0 0 - - -;
#X obj 220 1341 mb-gem_pix_control_shapes sh;
#X obj 616 1343 mb-gem_pix_control_shapes sh2;
#X obj 218 924 mb-gem_pix_control_texture tx;
#X obj 614 923 mb-gem_pix_control_texture tx2;
#X obj 615 1107 mb-gem_pix_control_transform tr2;
#X obj 218 1099 mb-gem_pix_control_transform tr;
#X text 1113 887 [mb-gem_pix_control_texture tx3];
#X text 176 65 Example 6: GEM Boxes;
#X obj 341 132 pddplink Exemple07_GEM_miniBoxes.pd -box;
#X text 59 133 Too big?->The same patch with miniboxes---->>;
#X connect 2 0 29 0;
#X connect 3 0 18 0;
#X connect 4 0 2 0;
#X connect 5 0 14 0;
#X connect 14 0 24 0;
#X connect 18 0 30 0;
#X connect 24 0 15 0;
#X connect 25 0 26 0;
#X connect 25 0 5 0;
#X connect 29 0 32 0;
#X connect 30 0 31 0;
#X connect 31 0 28 0;
#X connect 32 0 27 0;
