#N canvas 253 179 786 648 10;
#X obj 42 -48 mmb-gem_window gw;
#X obj 52 138 gemhead;
#X obj 52 163 mmb-gem_mp_bufferbase bs1;
#X obj 491 -17 mb-gmedia_player gm1;
#X obj 284 -19 mb-pmedia_player pm1;
#X text 565 -64 GEM;
#X text 376 -39 PDP;
#X obj 52 370 s mpbase_out1;
#X obj 491 -39 r mpbase_out1;
#X obj 284 512 s pmedia_out1;
#X obj 607 -38 r pmedia_out1;
#X floatatom 123 93 5 0 0 0 - - -;
#X floatatom 193 95 5 0 0 0 - - -;
#X connect 0 1 11 0;
#X connect 0 2 12 0;
#X connect 1 0 2 0;
#X connect 2 0 7 0;
#X connect 4 0 9 0;
#X connect 8 0 3 0;
#X connect 10 0 3 4;
#X connect 11 0 2 1;
#X connect 12 0 2 2;
