#N canvas 508 54 994 1051 10;
#X text 101 72 [mb-pdp_capture_video a];
#X obj 359 98 mmb-pdp_capture_video am;
#X text 364 75 [mmb-pdp_capture_video am];
#X text 92 661 [mb-pdp_play_video p];
#X obj 393 683 mmb-pdp_play_video mp;
#X text 402 657 [mmb-pdp_play_video mp];
#X obj 25 99 mb-pdp_capture_video a;
#X obj 13 685 mb-pdp_play_video p;
#X obj 20 372 mb-pdp_open_qt_video q;
#X text 92 344 [mb-pdp_open_qt_video q];
#X obj 397 378 mmb-pdp_open_qt_video mq;
#X text 397 358 [mmb-pdp_open_qt_video mq];
#X obj 22 935 mb-pdp_video_grid m;
#X text 373 947 ->PETAAA!!;
#X text 49 912 [mb-pdp_video_grid m];
#X obj 23 1214 mb-pdp_effects ff;
#X text 151 1183 [mb-pdp_effects ff];
#X text 83 2379 [mb-pdp_mixer2 p];
#X obj 31 2285 mb-pdp_mixer mx;
#X text 102 2258 [mb-pdp_mixer mx];
#X obj 32 2406 mb-pdp_mixer2 mx2;
#X obj 31 2555 mb-pdp2gem g;
#X obj 39 2704 mb-pdp_video_select ss;
#X text 58 2528 [mb-pdp2gem g];
#X text 46 2679 [mb-pdp_video_select ss];
#X text 103 1438 [mb-pdp_freeframe_control ff];
#X text 115 1837 [mb-pdp_frei0r_control fr];
#X obj 39 2816 mb-pdp_streaming_source st;
#X text 139 2779 [mb-pdp_streaming_source st];
#X symbolatom 481 163 20 0 0 0 - - -;
#X obj 1304 1313 pdp_canvas 640 480 3;
#X text 1442 1313 ->per fer pantalles de monitoreig?;
#X obj 1333 1230 pdp_binary ----;
#X obj 1331 1257 pdp_dilate ----;
#X obj 1339 1284 pdp_erode ----;
#X obj 1377 1341 pdp_pen;
#X obj 1376 1376 pdp_mapper;
#X obj 1353 1409 pdp_scale 192 160;
#X obj 1503 1344 pdp_background;
#X obj 1386 1464 pdp_cmap ----;
#X obj 1353 1438 pdp_compose ----;
#X obj 1489 1370 pdp_form -----------------;
#X obj 1531 1478 pdp_fqt;
#X obj 1377 1485 pdp_mgrid;
#X obj 1491 1400 pdp_qtext -----------------;
#X obj 1534 1430 pdp_imgloader;
#X obj 458 1218 mmb-pdp_effects mff;
#X text 472 1192 [mmb-pdp_effects mff];
#X text 1222 1225 TODO EFFECTS;
#X text 495 1330 bypass \, disable i monitoring no funciona.;
#X obj 379 2297 mmb-pdp_mixer mmx;
#X text 393 2271 [mmb-pdp_mixer mmx];
#X obj 375 2718 mmb-pdp_video_select ms;
#X text 377 2689 [mmb-pdp_video_select ms];
#X obj 374 2407 mmb-pdp_mixer2 mm2;
#X text 396 2382 [mmb-pdp_mixer2 mm2];
#X obj 476 1469 mmb-pdp_freeframe_control aaa;
#X floatatom 663 1436 5 0 0 0 - - -;
#X obj 27 1466 mb-pdp_freeframe_control ff;
#X text 434 1442 [mmb-pdp_freeframe_control aaa];
#X text 701 1439 plugin num selection;
#X obj 463 1879 mmb-pdp_frei0r_control bbb;
#X text 473 1850 [mmb-pdp_frei0r_control bbb];
#X obj 28 1875 mb-pdp_frei0r_control fr;
#X floatatom 670 1837 5 0 0 0 - - -;
#X text 708 1840 plugin num selection;
#X text 546 2921 PENDNG TO CHECK;
#X text 131 22 comment;
#X connect 1 1 29 0;
#X connect 57 0 56 1;
#X connect 64 0 61 3;
